<svg xmlns="http://www.w3.org/2000/svg" width="15.138" height="13.923" viewBox="0 0 15.138 13.923">
  <path id="路径_3258" data-name="路径 3258" d="M122,149.408h4.865a.271.271,0,0,0,.271-.271v-4.867a.271.271,0,0,0-.271-.271H122a.271.271,0,0,0-.271.271v1.758h-2.568a.135.135,0,0,0-.134.134v4.191h-1.622v-1.826a.271.271,0,0,0-.271-.271h-4.867a.271.271,0,0,0-.271.271v4.867a.271.271,0,0,0,.271.271h4.865a.271.271,0,0,0,.271-.271v-1.826h1.622v4.191a.135.135,0,0,0,.134.134h2.568v1.758a.271.271,0,0,0,.271.271h4.865a.271.271,0,0,0,.271-.271v-4.863a.271.271,0,0,0-.271-.271H122a.271.271,0,0,0-.271.271v1.892h-1.487v-7.436h1.487v1.892A.271.271,0,0,0,122,149.408Zm1.012-4.123h2.838v2.84h-2.838Zm-6.891,7.1h-2.838v-2.838h2.838Zm6.891,1.421h2.838v2.84h-2.838Z" transform="translate(-112 -144)" />
</svg>
