<svg xmlns="http://www.w3.org/2000/svg" width="14.823" height="14" viewBox="0 0 14.823 14">
  <path id="路径_3211" data-name="路径 3211" d="M73.215,90.638,66.9,84.323l-.423-.423a.515.515,0,0,0-.726,0l-6.741,6.738a1.045,1.045,0,0,0-.307.752,1.057,1.057,0,0,0,1.061,1.035h.695V97.75H71.766V92.425h.71a1.046,1.046,0,0,0,.739-1.787Zm-6.189,5.935H65.195V93.237h1.831Zm3.563-5.325v5.325H68.073V92.845a.654.654,0,0,0-.654-.654H64.8a.654.654,0,0,0-.654.654v3.728H61.632V91.247h-1.57l6.05-6.045.378.378,5.67,5.667Z" transform="translate(-58.699 -83.75)" />
</svg>
