<svg xmlns="http://www.w3.org/2000/svg" width="14.23" height="16.5" viewBox="0 0 14.23 16.5">
  <g id="组_2414" data-name="组 2414" transform="translate(0)">
    <path id="路径_3260" data-name="路径 3260" d="M288.151,256a.152.152,0,0,0-.151.151v.908a.152.152,0,0,0,.151.151h7.266a.152.152,0,0,0,.151-.151v-.908a.152.152,0,0,0-.151-.151Zm3.633,3.784v-.908a.152.152,0,0,0-.151-.151h-3.482a.152.152,0,0,0-.151.151v.908a.152.152,0,0,0,.151.151h3.482A.152.152,0,0,0,291.784,259.784Z" transform="translate(-285.124 -252.594)" />
    <path id="路径_3261" data-name="路径 3261" d="M141.752,90.683h-4.39V77.362h10.6v6.509a.152.152,0,0,0,.151.151h1.06a.152.152,0,0,0,.151-.151V76.605a.6.6,0,0,0-.606-.605h-12.11a.6.6,0,0,0-.605.605V91.44a.6.6,0,0,0,.605.605h5.147a.152.152,0,0,0,.151-.151v-1.06A.152.152,0,0,0,141.752,90.683Z" transform="translate(-136 -76)" />
    <path id="路径_3262" data-name="路径 3262" d="M481.205,543.716a2.631,2.631,0,0,1,.772-1.729,2.654,2.654,0,0,1,3.75,0c.061.061.119.125.174.191l-.437.339a.151.151,0,0,0,.057.267l1.765.426a.153.153,0,0,0,.187-.146l.011-1.805a.151.151,0,0,0-.244-.121l-.384.3a3.863,3.863,0,0,0-6.865,2.267.152.152,0,0,0,.151.157h.91A.15.15,0,0,0,481.205,543.716Zm6.356.144h-.91a.15.15,0,0,0-.151.144,2.63,2.63,0,0,1-.772,1.729,2.654,2.654,0,0,1-3.75,0c-.061-.06-.119-.125-.174-.191l.437-.339a.151.151,0,0,0-.057-.267l-1.765-.426a.153.153,0,0,0-.187.146l-.011,1.805a.151.151,0,0,0,.244.121l.384-.3a3.863,3.863,0,0,0,6.865-2.267A.152.152,0,0,0,487.561,543.86Z" transform="translate(-473.483 -531.22)" />
  </g>
</svg>
