<svg xmlns="http://www.w3.org/2000/svg" width="16.954" height="13.321" viewBox="0 0 16.954 13.321">
  <g id="组_2415" data-name="组 2415" transform="translate(0 0)">
    <path id="路径_3263" data-name="路径 3263" d="M359.618,417.548a2.108,2.108,0,1,0-3.115,0,2.991,2.991,0,0,0-1.412,2.386.151.151,0,0,0,.151.159h.831a.151.151,0,0,0,.15-.142,1.844,1.844,0,0,1,3.678,0,.151.151,0,0,0,.149.142h.829a.151.151,0,0,0,.151-.159A2.99,2.99,0,0,0,359.618,417.548Zm-1.557-.445a.984.984,0,1,1,.978-.984A.982.982,0,0,1,358.061,417.1Z" transform="translate(-349.584 -409.194)" />
    <path id="路径_3264" data-name="路径 3264" d="M80.349,161.211H77.321v-1.06A.152.152,0,0,0,77.17,160H76.11a.152.152,0,0,0-.151.151v1.06h-2.8v-1.06a.152.152,0,0,0-.151-.151h-1.06a.152.152,0,0,0-.151.151v1.06H69v-1.06a.152.152,0,0,0-.151-.151h-1.06a.152.152,0,0,0-.151.151v1.06H64.606a.6.6,0,0,0-.606.606v10.9a.6.6,0,0,0,.606.606H80.349a.6.6,0,0,0,.606-.606v-10.9A.6.6,0,0,0,80.349,161.211Zm-.757,10.748H65.362v-9.385h2.271v1.06a.152.152,0,0,0,.151.151h1.06a.152.152,0,0,0,.151-.151v-1.06h2.8v1.06a.152.152,0,0,0,.151.151h1.06a.152.152,0,0,0,.151-.151v-1.06h2.8v1.06a.152.152,0,0,0,.151.151h1.06a.152.152,0,0,0,.151-.151v-1.06h2.271Z" transform="translate(-64 -160)" />
  </g>
</svg>
