<svg xmlns="http://www.w3.org/2000/svg" width="15.138" height="15.138" viewBox="0 0 15.138 15.138">
  <g id="组_2416" data-name="组 2416" transform="translate(0 0)">
    <path id="路径_3265" data-name="路径 3265" d="M321.69,291.847a5.707,5.707,0,0,0-1.635-1.143,3.786,3.786,0,1,0-4.765,0,5.682,5.682,0,0,0-3.292,5,.151.151,0,0,0,.151.155h1.06a.151.151,0,0,0,.151-.146,4.317,4.317,0,0,1,8.628,0,.151.151,0,0,0,.151.146h1.06a.152.152,0,0,0,.151-.155A5.627,5.627,0,0,0,321.69,291.847Zm-4.015-1.663a2.423,2.423,0,0,1-2.422-2.447,2.423,2.423,0,1,1,2.422,2.447Z" transform="translate(-308.214 -280.722)" />
    <path id="路径_3266" data-name="路径 3266" d="M116.719,119.516a4.77,4.77,0,0,1,.055-1.379.152.152,0,0,0-.085-.167,2.422,2.422,0,0,1,1.02-4.632,2.419,2.419,0,0,1,1.627.651,2.476,2.476,0,0,1,.386.462.151.151,0,0,0,.176.061,4.7,4.7,0,0,1,1.046-.235.152.152,0,0,0,.119-.219A3.788,3.788,0,1,0,115.3,118.7a5.689,5.689,0,0,0-1.637,1.143A5.628,5.628,0,0,0,112,123.7a.151.151,0,0,0,.151.155h1.062a.151.151,0,0,0,.151-.146,4.318,4.318,0,0,1,3.243-4.034A.151.151,0,0,0,116.719,119.516Z" transform="translate(-111.998 -111.977)" />
  </g>
</svg>
