<svg xmlns="http://www.w3.org/2000/svg" width="14.663" height="17.003" viewBox="0 0 14.663 17.003">
  <g id="组_2401" data-name="组 2401" transform="translate(0 0)">
    <path id="路径_3212" data-name="路径 3212" d="M288.156,250a.156.156,0,0,0-.156.156v.936a.156.156,0,0,0,.156.156h7.487a.156.156,0,0,0,.156-.156v-.936a.156.156,0,0,0-.156-.156Zm3.588,2.808h-3.588a.156.156,0,0,0-.156.156v.936a.156.156,0,0,0,.156.156h3.588a.156.156,0,0,0,.156-.156v-.936A.156.156,0,0,0,291.744,252.808Z" transform="translate(-285.036 -246.607)" fill="#fff"/>
    <path id="路径_3213" data-name="路径 3213" d="M141.772,91.131H137.4V77.4h10.919v6.24a.156.156,0,0,0,.156.156h1.092a.156.156,0,0,0,.156-.156v-7.02A.623.623,0,0,0,149.1,76H136.624a.623.623,0,0,0-.624.624V91.911a.623.623,0,0,0,.624.624h5.148a.156.156,0,0,0,.156-.156V91.287A.156.156,0,0,0,141.772,91.131Z" transform="translate(-136 -76)" fill="#fff"/>
    <path id="路径_3214" data-name="路径 3214" d="M511.175,512.992h-2.808v-.714a2.184,2.184,0,1,0-1.248,0v.714h-2.808a.313.313,0,0,0-.312.312v2.964a.313.313,0,0,0,.312.312h6.863a.313.313,0,0,0,.312-.312V513.3A.313.313,0,0,0,511.175,512.992Zm-4.407-2.808a.975.975,0,1,1,.975.975A.975.975,0,0,1,506.769,510.184Zm3.51,5.187h-5.07V514.2h5.07Z" transform="translate(-496.824 -499.577)" fill="#fff"/>
  </g>
</svg>
