<svg xmlns="http://www.w3.org/2000/svg" width="14.663" height="17.003" viewBox="0 0 14.663 17.003">
  <g id="组_2404" data-name="组 2404" transform="translate(0 0)">
    <path id="路径_3220" data-name="路径 3220" d="M294.955,258.174a.154.154,0,0,0-.127-.064h-.862a.157.157,0,0,0-.127.248l1.439,1.991a.155.155,0,0,0,.252,0l2.227-3.081a.157.157,0,0,0-.127-.248h-.864a.154.154,0,0,0-.127.064L295.4,258.8Zm.844-7.082v-.936a.156.156,0,0,0-.156-.156h-7.487a.156.156,0,0,0-.156.156v.936a.156.156,0,0,0,.156.156h7.487A.156.156,0,0,0,295.8,251.092Zm-7.643,1.716a.156.156,0,0,0-.156.156v.936a.156.156,0,0,0,.156.156h3.588a.156.156,0,0,0,.156-.156v-.936a.156.156,0,0,0-.156-.156Z" transform="translate(-285.036 -246.607)" fill="#fff"/>
    <path id="路径_3221" data-name="路径 3221" d="M142.708,91.131h-5.3V77.4h10.919v5.772a.156.156,0,0,0,.156.156h1.092a.156.156,0,0,0,.156-.156V76.624A.623.623,0,0,0,149.1,76H136.624a.623.623,0,0,0-.624.624V91.911a.623.623,0,0,0,.624.624h6.084a.156.156,0,0,0,.156-.156V91.287A.156.156,0,0,0,142.708,91.131Z" transform="translate(-136 -76)" fill="#fff"/>
    <path id="路径_3222" data-name="路径 3222" d="M495.694,465.408l-3.744-1.3a.153.153,0,0,0-.051-.008.146.146,0,0,0-.051.008l-3.744,1.3a.155.155,0,0,0-.105.146v4.9a.151.151,0,0,0,.06.123L491.8,473.5a.154.154,0,0,0,.191,0l3.744-2.929a.157.157,0,0,0,.06-.123v-4.9A.155.155,0,0,0,495.694,465.408Zm-1.1,4.533-2.691,2.1-2.691-2.1V466.3l2.691-.936,2.691.936Z" transform="translate(-481.136 -456.533)" fill="#fff"/>
  </g>
</svg>
