<svg xmlns="http://www.w3.org/2000/svg" width="15.599" height="15.599" viewBox="0 0 15.599 15.599">
  <g id="组_2403" data-name="组 2403" transform="translate(0)">
    <path id="路径_3218" data-name="路径 3218" d="M126.975,112H112.624a.623.623,0,0,0-.624.624v14.351a.623.623,0,0,0,.624.624h14.351a.623.623,0,0,0,.624-.624V112.624A.623.623,0,0,0,126.975,112Zm-.78,14.2H113.4V113.4h12.791Z" transform="translate(-112 -112)" fill="#2B66F0"/>
    <path id="路径_3219" data-name="路径 3219" d="M298.108,282.64h.989a.133.133,0,0,0,.133-.133v-1.538a.693.693,0,0,1,.692-.694h4.011v1.041a.131.131,0,0,0,.213.1l2.127-1.671a.132.132,0,0,0,0-.209l-2.127-1.671a.131.131,0,0,0-.213.1v1.041h-4.013a1.947,1.947,0,0,0-1.944,1.952V282.5A.132.132,0,0,0,298.108,282.64Zm-.082,2.63,2.127,1.671a.131.131,0,0,0,.213-.1V285.8h4.011a1.947,1.947,0,0,0,1.944-1.952v-1.538a.133.133,0,0,0-.133-.133H305.2a.133.133,0,0,0-.133.133v1.538a.693.693,0,0,1-.692.694h-4.009V283.5a.131.131,0,0,0-.213-.1l-2.127,1.671A.128.128,0,0,0,298.026,285.271Z" transform="translate(-294.349 -274.607)" fill="#2B66F0"/>
  </g>
</svg>
