<svg xmlns="http://www.w3.org/2000/svg" width="15.599" height="15.599" viewBox="0 0 15.599 15.599">
  <g id="组_2405" data-name="组 2405" transform="translate(0)">
    <path id="路径_3223" data-name="路径 3223" d="M585.794,565a1.794,1.794,0,1,0,1.794,1.794A1.794,1.794,0,0,0,585.794,565Zm0,2.457a.663.663,0,1,1,.663-.663A.662.662,0,0,1,585.794,567.457Z" transform="translate(-574.797 -556.167)" fill="#fff"/>
    <path id="路径_3224" data-name="路径 3224" d="M126.975,113.092h-4.134A1.093,1.093,0,0,0,121.749,112h-1.56a1.093,1.093,0,0,0-1.092,1.092h-4.134a.623.623,0,0,0-.624.624v3.9h-1.716a.623.623,0,0,0-.624.624v8.735a.623.623,0,0,0,.624.624h6.552a.623.623,0,0,0,.624-.624v-.312h7.175a.623.623,0,0,0,.624-.624V113.716A.623.623,0,0,0,126.975,113.092Zm-8.033,1.248h1.4v-1.092h1.248v1.092H123v.936h-4.056Zm-.39,12.011h-5.3v-4.524h5.3Zm0-5.772h-5.3v-1.716h5.3Zm7.643,4.68h-6.4v-7.02a.623.623,0,0,0-.624-.624h-3.432V114.5h1.95v2.028h6.552V114.5h1.95Z" transform="translate(-112 -112)" fill="#fff"/>
    <path id="路径_3225" data-name="路径 3225" d="M586.34,400.156v1.872a.156.156,0,0,0,.156.156h.936a.156.156,0,0,0,.156-.156v-1.872a.156.156,0,0,0-.156-.156H586.5A.156.156,0,0,0,586.34,400.156Zm-2.184,2.028h.936a.157.157,0,0,0,.156-.156v-1.092a.157.157,0,0,0-.156-.156h-.936a.156.156,0,0,0-.156.156v1.092A.156.156,0,0,0,584.156,402.184Z" transform="translate(-574.797 -394.384)" fill="#fff"/>
  </g>
</svg>
