<svg id="组_2402" data-name="组 2402" xmlns="http://www.w3.org/2000/svg" width="17.471" height="17.471" viewBox="0 0 17.471 17.471">
  <path id="路径_3215" data-name="路径 3215" d="M72.735,64a8.735,8.735,0,1,0,8.735,8.735A8.736,8.736,0,0,0,72.735,64Zm0,15.989a7.254,7.254,0,1,1,7.253-7.254A7.255,7.255,0,0,1,72.735,79.989Z" transform="translate(-64 -64)" fill="#2B66F0"/>
  <path id="路径_3216" data-name="路径 3216" d="M301.825,293.748a.624.624,0,0,0-.478.01l-5.284,2.313-2.311,5.284a.625.625,0,0,0,.345.833.623.623,0,0,0,.478-.01l5.284-2.313,2.311-5.284a.625.625,0,0,0-.345-.833Zm-2.6,4.65.511.511-.827.827-.511-.511-3.011,1.318,1.316-3.011-.5-.5.827-.827.5.5,3.013-1.316Z" transform="translate(-289.221 -289.226)" fill="#2B66F0"/>
  <path id="路径_3217" data-name="路径 3217" d="M422.827,422l-.827.827.5.5,1.694,1.692.511.511.827-.827-.511-.511-1.692-1.694Z" transform="translate(-415.019 -415.019)" fill="#2B66F0"/>
</svg>
